<?xml version="1.0" encoding="UTF-8"?>
<svg id="Layer_2" data-name="Layer 2" xmlns="http://www.w3.org/2000/svg" viewBox="0 0 1093.95 311.97">
  <defs>
    <style>
      .cls-1 {
        fill: #664aea;
      }

      .cls-1, .cls-2 {
        stroke-width: 0px;
      }

      .cls-2 {
        fill: #332f46;
      }
    </style>
  </defs>
  <g id="Layer_1-2" data-name="Layer 1">
    <g>
      <g>
        <path class="cls-2" d="M220.73,53.29l-86.95,86.97-26.12,26.12-56.02,56.03-13.61,13.62-4.26,4.23C14.11,219.39,2.94,193.25.51,166.38c-2.7-29.76,5.33-60.41,24.41-85.79,26.16-34.78,67.63-52.35,108.86-49.13,16.02,1.24,31.99,5.63,47.03,13.35l-19.14,19.11c-9.07-3.76-18.46-6.08-27.89-7.03-30.46-3.06-61.3,8.19-82.71,31.59-19.68,21.51-28.44,50.06-25.24,77.9,1.36,11.81,4.86,23.48,10.58,34.44L220.73,16.5c10.16,10.16,10.16,26.63,0,36.79Z"/>
        <path class="cls-1" d="M224.34,231.29c-36.3,48.28-102.1,63.4-155.84,35.81l19.11-19.05c38.34,15.82,82.49,5.97,110.48-24.65,27.99-30.61,33.85-75.47,14.67-112.25L28.43,295.48c-10.15-10.17-10.15-26.64,0-36.8L197.55,89.56l13.59-13.61,4.35-4.33c41.42,43.98,45.16,111.39,8.85,159.67Z"/>
      </g>
      <g id="Page-1">
        <g id="Artboard">
          <g id="Shape">
            <path class="cls-2" d="M373.03,253.95c-13.76,0-24.89-4.47-33.38-13.42-8.49-8.94-12.74-20.91-12.74-35.9h0v-90.36c0-10.39,2.57-19.22,7.71-26.47,5.1-7.25,11.45-12.21,19.08-14.87h0l43.84-17.11V0h26.13v253.95h-50.63ZM378.58,232.2h18.95V79.84l-29.07,10.88c-5.71,1.93-9.69,5-11.96,9.21-2.31,4.25-3.46,10.97-3.46,20.16h0v84.55c0,8.7,2.29,15.47,6.86,20.3,4.62,4.83,10.84,7.25,18.68,7.25h0ZM509.96,253.95c-11.98,0-21.52-3.99-28.61-11.97-7.1-7.98-10.65-18.73-10.65-32.27h0v-96.52c0-15.71,3.92-28.04,11.76-36.98,7.88-8.99,19.56-13.49,35.02-13.49h0c15.46,0,27.07,4.5,34.82,13.49,7.71,8.94,11.56,21.27,11.56,36.98h0v16.68c0,10.15-2.61,17.84-7.84,23.06-5.23,5.17-12.09,9.09-20.58,11.75h0l-38.54,11.97v35.61c0,5.8,1.57,10.56,4.7,14.29,3.18,3.77,7.27,5.66,12.28,5.66h35.28v21.76h-39.2ZM496.9,153.81l19.93-6.16c7.19-2.18,12.02-3.8,14.5-4.86,2.53-1.11,4.22-2.76,5.1-4.93.87-2.18,1.31-5.8,1.31-10.88h0v-19.94c0-7.74-1.81-13.42-5.42-17.04-3.57-3.63-8.51-5.44-14.83-5.44h0c-6.1,0-11.06,1.93-14.9,5.8-3.79,3.87-5.68,9.43-5.68,16.68h0v46.77ZM637.09,253.95c-11.98,0-21.52-3.99-28.61-11.97-7.1-7.98-10.65-18.73-10.65-32.27h0v-96.52c0-15.71,3.92-28.04,11.76-36.98,7.88-8.99,19.56-13.49,35.02-13.49h0c15.46,0,27.07,4.5,34.82,13.49,7.71,8.94,11.56,21.27,11.56,36.98h0v16.68c0,10.15-2.61,17.84-7.84,23.06-5.23,5.17-12.09,9.09-20.58,11.75h0l-38.54,11.97v35.61c0,5.8,1.57,10.56,4.7,14.29,3.18,3.77,7.27,5.66,12.28,5.66h35.28v21.76h-39.2ZM624.03,153.81l19.93-6.16c7.19-2.18,12.02-3.8,14.5-4.86,2.53-1.11,4.22-2.76,5.1-4.93s1.31-5.8,1.31-10.88h0v-19.94c0-7.74-1.81-13.42-5.42-17.04-3.57-3.63-8.51-5.44-14.83-5.44h0c-6.1,0-11.06,1.93-14.9,5.8-3.79,3.87-5.68,9.43-5.68,16.68h0v46.77ZM730.19,311.97V65.27h52.98c11.98,0,22.17,4.38,30.57,13.13,8.36,8.7,12.54,19.58,12.54,32.63h0v97.61c0,13.05-4.14,23.86-12.41,32.41-8.28,8.61-18.4,12.91-30.38,12.91h-27.11v58.01h-26.2ZM756.39,232.56h21.56c6.1,0,11.32-2.3,15.68-6.89,4.36-4.59,6.53-10.27,6.53-17.04h0v-97.61c0-6.77-2.18-12.45-6.53-17.04-4.36-4.59-9.58-6.89-15.68-6.89h-21.56v145.47ZM904.43,253.95c-11.98,0-21.52-3.99-28.61-11.97-7.06-7.98-10.58-18.73-10.58-32.27h0v-96.52c0-15.71,3.92-28.04,11.76-36.98,7.84-8.99,19.49-13.49,34.95-13.49h0c15.46,0,27.07,4.5,34.82,13.49,7.71,8.94,11.56,21.27,11.56,36.98h0v16.68c0,10.15-2.61,17.84-7.84,23.06-5.23,5.17-12.09,9.09-20.58,11.75h0l-38.54,11.97v35.61c0,5.8,1.57,10.56,4.7,14.29,3.18,3.77,7.27,5.66,12.28,5.66h35.28v21.76h-39.2ZM891.36,153.81l19.93-6.16c7.19-2.18,12.04-3.8,14.57-4.86,2.48-1.11,4.16-2.76,5.03-4.93s1.31-5.8,1.31-10.88h0v-19.94c0-7.74-1.79-13.42-5.36-17.04-3.61-3.63-8.58-5.44-14.9-5.44h0c-6.1,0-11.06,1.93-14.9,5.8-3.79,3.87-5.68,9.43-5.68,16.68h0v46.77ZM997.59,253.95V65.27h20.25l2.94,10.59,13.39-4.35c9.15-3.19,16.4-5.44,21.75-6.74,5.31-1.35,10.37-2.03,15.16-2.03,7.84,0,13.61,3.05,17.31,9.14,3.7,6.04,5.55,13.9,5.55,23.57v158.52h-26.13V104.86c0-7.01-.44-11.92-1.31-14.72-.87-2.76-3.05-4.13-6.53-4.13-1.74,0-13.83,3.87-36.26,11.6v156.35h-26.13Z"/>
          </g>
        </g>
      </g>
    </g>
  </g>
</svg>